<svg xmlns="http://www.w3.org/2000/svg" width="79" height="79" viewBox="0 0 150 116">
<path d="M98.3568 1.52334L63.5619 36.3125C58.8378 41.0358 50.7599 37.6905 50.7599 31.0104V3.02611C50.7599 1.85258 49.8092 0.899414 48.6355 0.899414H2.31852C1.14479 0.899414 0.191406 1.84992 0.191406 3.02611V49.3355C0.191406 50.509 1.14214 51.4622 2.31852 51.4622H48.4124H147.422C148.596 51.4622 149.549 50.5117 149.549 49.3355V3.02611C149.549 1.85258 148.599 0.899414 147.425 0.899414H99.8625C99.2995 0.899414 98.7577 1.12243 98.3594 1.52069L98.3568 1.52334Z" ></path>
<path d="M48.4124 64.8225H2.31852C1.14479 64.8225 0.191406 65.773 0.191406 66.9492V113.259C0.191406 114.432 1.14214 115.385 2.31852 115.385H48.6355C49.8092 115.385 50.7626 114.435 50.7626 113.259V85.2743C50.7626 78.5942 58.8406 75.2489 63.5647 79.9722L98.3594 114.761C98.7577 115.16 99.2995 115.383 99.8625 115.383H147.425C148.599 115.383 149.552 114.432 149.552 113.256V66.9465C149.552 65.773 148.601 64.8198 147.425 64.8198H48.415L48.4124 64.8225Z"></path>
</svg>