<svg width="64" height="64" viewBox="0 0 64 64" fill="none" xmlns="http://www.w3.org/2000/svg">
<circle cx="32" cy="32" r="32" fill="black"/>
<mask id="mask0_1_51" style="mask-type:alpha" maskUnits="userSpaceOnUse" x="0" y="0" width="64" height="64">
<circle cx="32" cy="32" r="32" fill="white"/>
</mask>
<g mask="url(#mask0_1_51)">
<path d="M20.0309 -17.4482C19.2667 -14.7435 30.4057 -6.28754 30.6302 3.75036C30.8548 13.7883 32.1123 24.949 24.9713 43.9244C17.8302 62.8998 7.16837 69.3293 4.76074 72.017" stroke="white" stroke-width="11" stroke-linecap="round"/>
<path d="M51.8935 0.449219C51.5656 0.88552 51.669 13.1594 46.8409 22.0296C42.7584 29.5299 36.711 34.1409 29.7742 36.5271C22.2908 39.1013 17.9274 42.4197 11.3628 40.3987C7.57112 39.2313 5.74879 34.4894 6.17546 30.3383C6.4992 27.1886 9.67861 23.6464 14.0576 24.2303C18.4365 24.8141 27.3939 37.3637 41.1507 43.5852C54.9074 49.8067 67.0594 46.4491 68.2891 46.3945" stroke="white" stroke-width="11" stroke-linecap="round"/>
</g>
</svg>
